<mxfile host="Electron" modified="2023-05-18T18:06:32.606Z" agent="Mozilla/5.0 (Windows NT 10.0; Win64; x64) AppleWebKit/537.36 (KHTML, like Gecko) draw.io/21.2.8 Chrome/112.0.5615.165 Electron/24.2.0 Safari/537.36" etag="4VDfKIclY9I7WGb3EL5H" version="21.2.8" type="device">
  <diagram name="PÃ¡gina-1" id="kYpK-UUNxIVd7ELNLC5e">
    <mxGraphModel dx="1980" dy="535" grid="1" gridSize="10" guides="1" tooltips="1" connect="1" arrows="1" fold="1" page="1" pageScale="1" pageWidth="827" pageHeight="1169" math="0" shadow="0">
      <root>
        <mxCell id="0" />
        <mxCell id="1" parent="0" />
        <mxCell id="QUuMtB_H9kEgkd_Vems0-22" style="edgeStyle=orthogonalEdgeStyle;rounded=0;orthogonalLoop=1;jettySize=auto;html=1;" edge="1" parent="1" source="QUuMtB_H9kEgkd_Vems0-3" target="QUuMtB_H9kEgkd_Vems0-21">
          <mxGeometry relative="1" as="geometry" />
        </mxCell>
        <mxCell id="QUuMtB_H9kEgkd_Vems0-3" value="" style="rounded=0;whiteSpace=wrap;html=1;fillColor=#00000;" vertex="1" parent="1">
          <mxGeometry x="20" y="70" width="780" height="410" as="geometry" />
        </mxCell>
        <mxCell id="QUuMtB_H9kEgkd_Vems0-4" value="" style="rounded=1;whiteSpace=wrap;html=1;arcSize=1;" vertex="1" parent="1">
          <mxGeometry x="30" y="80" width="760" height="680" as="geometry" />
        </mxCell>
        <mxCell id="QUuMtB_H9kEgkd_Vems0-5" value="" style="rounded=1;whiteSpace=wrap;html=1;arcSize=7;" vertex="1" parent="1">
          <mxGeometry x="45.5" y="100" width="729" height="160" as="geometry" />
        </mxCell>
        <mxCell id="QUuMtB_H9kEgkd_Vems0-7" value="" style="rounded=1;whiteSpace=wrap;html=1;arcSize=7;" vertex="1" parent="1">
          <mxGeometry x="60" y="110" width="190" height="140" as="geometry" />
        </mxCell>
        <mxCell id="QUuMtB_H9kEgkd_Vems0-8" value="" style="rounded=1;whiteSpace=wrap;html=1;arcSize=28;" vertex="1" parent="1">
          <mxGeometry x="270" y="110" width="480" height="40" as="geometry" />
        </mxCell>
        <mxCell id="QUuMtB_H9kEgkd_Vems0-9" value="" style="rounded=1;whiteSpace=wrap;html=1;arcSize=7;" vertex="1" parent="1">
          <mxGeometry x="270" y="160" width="480" height="90" as="geometry" />
        </mxCell>
        <mxCell id="QUuMtB_H9kEgkd_Vems0-10" value="" style="rounded=1;whiteSpace=wrap;html=1;arcSize=7;" vertex="1" parent="1">
          <mxGeometry x="45.5" y="270" width="729" height="290" as="geometry" />
        </mxCell>
        <mxCell id="QUuMtB_H9kEgkd_Vems0-12" value="" style="rounded=1;whiteSpace=wrap;html=1;arcSize=7;" vertex="1" parent="1">
          <mxGeometry x="60" y="280" width="190" height="260" as="geometry" />
        </mxCell>
        <mxCell id="QUuMtB_H9kEgkd_Vems0-13" value="" style="rounded=1;whiteSpace=wrap;html=1;arcSize=30;" vertex="1" parent="1">
          <mxGeometry x="270" y="280" width="480" height="40" as="geometry" />
        </mxCell>
        <mxCell id="QUuMtB_H9kEgkd_Vems0-14" value="" style="rounded=1;whiteSpace=wrap;html=1;arcSize=7;" vertex="1" parent="1">
          <mxGeometry x="270" y="330" width="480" height="210" as="geometry" />
        </mxCell>
        <mxCell id="QUuMtB_H9kEgkd_Vems0-15" value="" style="rounded=1;whiteSpace=wrap;html=1;arcSize=7;" vertex="1" parent="1">
          <mxGeometry x="45.5" y="580" width="729" height="160" as="geometry" />
        </mxCell>
        <mxCell id="QUuMtB_H9kEgkd_Vems0-17" value="" style="rounded=1;whiteSpace=wrap;html=1;arcSize=7;" vertex="1" parent="1">
          <mxGeometry x="60" y="590" width="190" height="140" as="geometry" />
        </mxCell>
        <mxCell id="QUuMtB_H9kEgkd_Vems0-18" value="" style="rounded=1;whiteSpace=wrap;html=1;arcSize=33;" vertex="1" parent="1">
          <mxGeometry x="270" y="590" width="480" height="40" as="geometry" />
        </mxCell>
        <mxCell id="QUuMtB_H9kEgkd_Vems0-19" value="" style="rounded=1;whiteSpace=wrap;html=1;arcSize=15;" vertex="1" parent="1">
          <mxGeometry x="270" y="640" width="480" height="90" as="geometry" />
        </mxCell>
        <mxCell id="QUuMtB_H9kEgkd_Vems0-21" value="screen" style="text;html=1;strokeColor=none;fillColor=#08161D;align=center;verticalAlign=middle;whiteSpace=wrap;rounded=0;" vertex="1" parent="1">
          <mxGeometry x="380" y="10" width="60" height="30" as="geometry" />
        </mxCell>
        <mxCell id="QUuMtB_H9kEgkd_Vems0-25" style="edgeStyle=orthogonalEdgeStyle;rounded=0;orthogonalLoop=1;jettySize=auto;html=1;exitX=0.5;exitY=1;exitDx=0;exitDy=0;entryX=0.818;entryY=-0.001;entryDx=0;entryDy=0;entryPerimeter=0;" edge="1" parent="1" source="QUuMtB_H9kEgkd_Vems0-23" target="QUuMtB_H9kEgkd_Vems0-4">
          <mxGeometry relative="1" as="geometry">
            <Array as="points">
              <mxPoint x="735" y="60" />
              <mxPoint x="652" y="60" />
            </Array>
          </mxGeometry>
        </mxCell>
        <mxCell id="QUuMtB_H9kEgkd_Vems0-23" value="PackageCardDescription" style="text;html=1;strokeColor=none;fillColor=#08161D;align=center;verticalAlign=middle;whiteSpace=wrap;rounded=0;" vertex="1" parent="1">
          <mxGeometry x="660" y="30" width="150" height="20" as="geometry" />
        </mxCell>
        <mxCell id="QUuMtB_H9kEgkd_Vems0-28" style="edgeStyle=orthogonalEdgeStyle;rounded=0;orthogonalLoop=1;jettySize=auto;html=1;exitX=0.5;exitY=1;exitDx=0;exitDy=0;entryX=0.25;entryY=0;entryDx=0;entryDy=0;" edge="1" parent="1" source="QUuMtB_H9kEgkd_Vems0-26" target="QUuMtB_H9kEgkd_Vems0-5">
          <mxGeometry relative="1" as="geometry" />
        </mxCell>
        <mxCell id="QUuMtB_H9kEgkd_Vems0-26" value="UnitCard" style="text;html=1;strokeColor=none;fillColor=#08161D;align=center;verticalAlign=middle;whiteSpace=wrap;rounded=0;" vertex="1" parent="1">
          <mxGeometry x="30" y="30" width="150" height="20" as="geometry" />
        </mxCell>
        <mxCell id="QUuMtB_H9kEgkd_Vems0-30" style="edgeStyle=orthogonalEdgeStyle;rounded=0;orthogonalLoop=1;jettySize=auto;html=1;entryX=1;entryY=0.5;entryDx=0;entryDy=0;" edge="1" parent="1" source="QUuMtB_H9kEgkd_Vems0-29" target="QUuMtB_H9kEgkd_Vems0-8">
          <mxGeometry relative="1" as="geometry" />
        </mxCell>
        <mxCell id="QUuMtB_H9kEgkd_Vems0-31" style="edgeStyle=orthogonalEdgeStyle;rounded=0;orthogonalLoop=1;jettySize=auto;html=1;entryX=1;entryY=0.5;entryDx=0;entryDy=0;" edge="1" parent="1" source="QUuMtB_H9kEgkd_Vems0-29" target="QUuMtB_H9kEgkd_Vems0-9">
          <mxGeometry relative="1" as="geometry" />
        </mxCell>
        <mxCell id="QUuMtB_H9kEgkd_Vems0-29" value="CardText" style="text;html=1;strokeColor=none;fillColor=#08161D;align=center;verticalAlign=middle;whiteSpace=wrap;rounded=0;" vertex="1" parent="1">
          <mxGeometry x="820" y="150" width="150" height="20" as="geometry" />
        </mxCell>
        <mxCell id="QUuMtB_H9kEgkd_Vems0-33" style="edgeStyle=orthogonalEdgeStyle;rounded=0;orthogonalLoop=1;jettySize=auto;html=1;entryX=0;entryY=0.5;entryDx=0;entryDy=0;" edge="1" parent="1" source="QUuMtB_H9kEgkd_Vems0-32" target="QUuMtB_H9kEgkd_Vems0-7">
          <mxGeometry relative="1" as="geometry" />
        </mxCell>
        <mxCell id="QUuMtB_H9kEgkd_Vems0-32" value="ImageCard" style="text;html=1;strokeColor=none;fillColor=#08161D;align=center;verticalAlign=middle;whiteSpace=wrap;rounded=0;" vertex="1" parent="1">
          <mxGeometry x="-180" y="150" width="150" height="20" as="geometry" />
        </mxCell>
      </root>
    </mxGraphModel>
  </diagram>
</mxfile>
